<?xml version="1.0" encoding="UTF-8" standalone="no"?>
<!DOCTYPE svg PUBLIC "-//W3C//DTD SVG 1.1//EN" "http://www.w3.org/Graphics/SVG/1.1/DTD/svg11.dtd">
<svg width="100%" height="100%" viewBox="0 0 256 256" version="1.1" xmlns="http://www.w3.org/2000/svg" xmlns:xlink="http://www.w3.org/1999/xlink" xml:space="preserve" xmlns:serif="http://www.serif.com/" style="fill-rule:evenodd;clip-rule:evenodd;stroke-linejoin:round;stroke-miterlimit:2;">
    <path d="M69.31,31.591l46.249,23.624l-46.196,24.572l-46.249,-25.098l46.196,-23.098Zm61.137,30.937l46.723,23.624l-46.933,24.571l-45.986,-25.097l46.196,-23.098Zm57.454,-30.937l48.196,25.098l-39.776,20.624l-46.722,-25.098l38.302,-20.624Zm-59.664,-29.859l46.25,23.035l-39.675,21.214l-46.351,-24.361l39.776,-19.888Zm115.542,122.455l-41.204,21.632l0.549,-53.565l40.93,-20.778l-0.275,52.711Zm-58.995,28.75l-48.532,25.657l-0.069,-53.292l48.532,-24.65l0.069,52.285Zm0,75.209l-48.601,24.651l-0,-52.949l48.601,-26.124l0,54.422Zm59.27,-29.8l-41.479,21.974l0,-54.408l41.479,-21.288l0,53.722Z" style="fill:#2562ad;"/>
    <path d="M51.942,154.835l-35.86,-63.386l0.342,-24.001l104.387,54.516l-1.452,41.67l-20.304,-10.304l-5.784,-19.784l-37.437,-19.313l30.245,52.806l-29.104,20.982c-0,0 41.729,22.162 41.729,22.162l9.443,-15.531l13.248,4.733l-1.035,53.802l-104.307,-56.373l-0.201,-15.116l36.09,-26.863Z" style="fill:#ff1c75;"/>
</svg>
